# 3ds Max Wavefront OBJ Exporter v0.97b - (c)2007 guruware
# File Created: 22.08.2012 12:29:46

#
# object Tent
#

v  0.7005 1.2113 0.0098
v  -0.7485 1.2113 0.0098
v  -0.7485 1.2113 0.7629
v  0.7005 1.2113 0.7629
v  -0.7485 -0.8949 0.7629
v  -0.7485 -0.8949 0.0098
v  0.7005 -0.8949 0.0098
v  0.7005 -0.8949 0.7629
v  -0.7485 -0.8936 0.0085
v  -0.7485 1.2100 0.0085
v  0.7005 1.2100 0.0085
v  0.7005 -0.8936 0.0085
v  0.8451 -0.8936 0.0098
v  0.8451 1.2100 0.0098
v  0.8451 1.2100 0.8153
v  0.8451 -0.8936 0.8153
v  -0.8931 -0.8936 0.8153
v  -0.8931 1.2100 0.8153
v  -0.8931 1.2100 0.0098
v  -0.8931 -0.8936 0.0098
v  0.6990 1.2113 0.7655
v  -0.7470 1.2113 0.7655
v  -0.0240 1.2113 1.5056
v  -0.0248 1.2100 1.7288
v  -0.8923 1.2100 0.8176
v  -0.8923 -0.8936 0.8176
v  -0.0248 -0.8936 1.7288
v  -0.7470 -0.8949 0.7655
v  0.6990 -0.8949 0.7655
v  -0.0240 -0.8949 1.5056
v  -0.0232 -0.8936 1.7288
v  0.8443 -0.8936 0.8176
v  0.8443 1.2100 0.8176
v  -0.0232 1.2100 1.7288
v  -0.7511 1.3396 0.7633
v  -0.7511 1.3396 0.0098
v  -0.8918 1.3396 0.0098
v  -0.8918 1.3396 0.8148
v  -0.0253 1.3396 1.5081
v  -0.7502 1.3396 0.7657
v  -0.8910 1.3396 0.8172
v  -0.0253 1.3396 1.7263
v  -0.0227 1.3396 1.5081
v  -0.0227 1.3396 1.7263
v  0.8429 1.3396 0.8172
v  0.7022 1.3396 0.7657
v  0.7031 1.3396 0.7633
v  0.8438 1.3396 0.8148
v  0.8438 1.3396 0.0098
v  0.7031 1.3396 0.0098
v  0.7031 1.2100 0.0085
v  0.8438 1.2100 0.0085
v  0.8438 -0.8936 0.0085
v  0.7031 -0.8936 0.0085
v  0.7031 -1.0232 0.7633
v  0.7031 -1.0232 0.0098
v  0.8438 -1.0232 0.0098
v  0.8438 -1.0232 0.8148
v  -0.0227 -1.0232 1.5081
v  0.7022 -1.0232 0.7657
v  0.8429 -1.0232 0.8172
v  -0.0227 -1.0232 1.7263
v  -0.0253 -1.0232 1.5081
v  -0.0253 -1.0232 1.7263
v  -0.8910 -1.0232 0.8172
v  -0.7502 -1.0232 0.7657
v  -0.7511 -1.0232 0.7633
v  -0.8918 -1.0232 0.8148
v  -0.8918 -1.0232 0.0098
v  -0.7511 -1.0232 0.0098
v  -0.7511 -0.8936 0.0085
v  -0.8918 -0.8936 0.0085
v  -0.8918 1.2100 0.0085
v  -0.7511 1.2100 0.0085
v  -0.8931 1.3383 0.0098
v  -0.8931 1.2126 0.0098
v  -0.8931 1.2126 0.8153
v  -0.8931 1.3383 0.8153
v  -0.8923 1.3383 0.8176
v  -0.8923 1.2126 0.8176
v  -0.0248 1.2126 1.7288
v  -0.0248 1.3383 1.7288
v  -0.0232 1.3383 1.7288
v  -0.0232 1.2126 1.7288
v  0.8443 1.2126 0.8176
v  0.8443 1.3383 0.8176
v  0.8451 1.3383 0.8153
v  0.8451 1.2126 0.8153
v  0.8451 1.2126 0.0098
v  0.8451 1.3383 0.0098
v  0.8438 1.3383 0.0085
v  0.8438 1.2126 0.0085
v  0.7031 1.2126 0.0085
v  0.7031 1.3383 0.0085
v  0.7018 1.3383 0.0098
v  0.7018 1.2126 0.0098
v  0.7018 1.2126 0.7629
v  0.7018 1.3383 0.7629
v  0.7009 1.3383 0.7652
v  0.7009 1.2126 0.7652
v  -0.0232 1.2126 1.5066
v  -0.0232 1.3383 1.5066
v  -0.0248 1.3383 1.5066
v  -0.0248 1.2126 1.5066
v  -0.7490 1.2126 0.7652
v  -0.7490 1.3383 0.7652
v  -0.7498 1.3383 0.7629
v  -0.7498 1.2126 0.7629
v  -0.7498 1.2126 0.0098
v  -0.7498 1.3383 0.0098
v  -0.7511 1.3383 0.0085
v  -0.7511 1.2126 0.0085
v  -0.8918 1.2126 0.0085
v  -0.8918 1.3383 0.0085
v  0.8451 -1.0219 0.0098
v  0.8451 -0.8962 0.0098
v  0.8451 -0.8962 0.8153
v  0.8451 -1.0219 0.8153
v  0.8443 -1.0219 0.8176
v  0.8443 -0.8962 0.8176
v  -0.0232 -0.8962 1.7288
v  -0.0232 -1.0219 1.7288
v  -0.0248 -1.0219 1.7288
v  -0.0248 -0.8962 1.7288
v  -0.8923 -0.8962 0.8176
v  -0.8923 -1.0219 0.8176
v  -0.8931 -1.0219 0.8153
v  -0.8931 -0.8962 0.8153
v  -0.8931 -0.8962 0.0098
v  -0.8931 -1.0219 0.0098
v  -0.8918 -1.0219 0.0085
v  -0.8918 -0.8962 0.0085
v  -0.7511 -0.8962 0.0085
v  -0.7511 -1.0219 0.0085
v  -0.7498 -1.0219 0.0098
v  -0.7498 -0.8962 0.0098
v  -0.7498 -0.8962 0.7629
v  -0.7498 -1.0219 0.7629
v  -0.7490 -1.0219 0.7652
v  -0.7490 -0.8962 0.7652
v  -0.0248 -0.8962 1.5066
v  -0.0248 -1.0219 1.5066
v  -0.0232 -1.0219 1.5066
v  -0.0232 -0.8962 1.5066
v  0.7009 -0.8962 0.7652
v  0.7009 -1.0219 0.7652
v  0.7018 -1.0219 0.7629
v  0.7018 -0.8962 0.7629
v  0.7018 -0.8962 0.0098
v  0.7018 -1.0219 0.0098
v  0.7031 -1.0219 0.0085
v  0.7031 -0.8962 0.0085
v  0.8438 -0.8962 0.0085
v  0.8438 -1.0219 0.0085
# 154 vertices

vn -0.2551 0.8268 -0.5014
vn 0.3880 0.8360 -0.3879
vn 0.4262 0.8951 -0.1308
vn -0.4262 0.8951 -0.1308
vn 0.4259 -0.8953 -0.1307
vn 0.2549 -0.8267 -0.5016
vn -0.3878 -0.8360 -0.3882
vn -0.4259 -0.8953 -0.1307
vn 0.0000 -0.3824 -0.9240
vn 0.1020 0.2894 -0.9518
vn 0.0000 0.3827 -0.9239
vn -0.1019 -0.2891 -0.9519
vn 0.9238 0.0000 -0.3830
vn 0.9847 0.0000 0.1744
vn -0.9847 0.0000 0.1744
vn -0.9238 0.0000 -0.3830
vn -0.3216 0.9109 -0.2585
vn 0.3216 0.9109 -0.2586
vn 0.0000 0.8844 -0.4667
vn -0.3940 0.0000 0.9191
vn -0.8495 0.0000 0.5276
vn 0.3214 -0.9110 -0.2584
vn -0.3214 -0.9110 -0.2584
vn -0.0000 -0.8846 -0.4664
vn 0.3940 0.0000 0.9191
vn 0.8495 0.0000 0.5276
vn 0.3314 0.9415 -0.0616
vn 0.3415 0.8755 -0.3418
vn -0.3416 0.8755 -0.3418
vn -0.4003 0.9143 0.0621
vn 0.0988 0.9647 -0.2440
vn 0.2815 0.9440 -0.1723
vn -0.3450 0.9105 0.2281
vn -0.2035 0.9306 0.3044
vn -0.0988 0.9647 -0.2440
vn 0.2034 0.9306 0.3044
vn 0.3449 0.9105 0.2281
vn -0.2815 0.9440 -0.1723
vn -0.3314 0.9415 -0.0616
vn 0.4002 0.9143 0.0620
vn 0.3416 0.8755 -0.3418
vn -0.3415 0.8755 -0.3418
vn -0.0991 0.0990 -0.9901
vn 0.3824 0.0000 -0.9240
vn 0.0000 0.0000 -1.0000
vn -0.3314 -0.9415 -0.0616
vn -0.3416 -0.8755 -0.3419
vn 0.3416 -0.8755 -0.3418
vn 0.4003 -0.9143 0.0621
vn -0.0988 -0.9647 -0.2442
vn -0.2815 -0.9440 -0.1723
vn 0.3450 -0.9105 0.2281
vn 0.2035 -0.9306 0.3044
vn 0.0988 -0.9647 -0.2442
vn -0.2034 -0.9306 0.3044
vn -0.3449 -0.9105 0.2281
vn 0.2816 -0.9439 -0.1723
vn 0.3314 -0.9415 -0.0616
vn -0.4002 -0.9143 0.0620
vn -0.3416 -0.8755 -0.3418
vn 0.3416 -0.8755 -0.3419
vn 0.0990 -0.0990 -0.9901
vn -0.3824 0.0000 -0.9240
vn -0.8755 0.3416 -0.3418
vn -0.9090 0.3817 0.1672
vn -0.7906 0.3779 0.4818
vn -0.3271 0.4562 0.8276
vn 0.3271 0.4562 0.8276
vn 0.7906 0.3779 0.4818
vn 0.9091 0.3816 0.1671
vn 0.8755 0.3416 -0.3418
vn 0.3414 0.3414 -0.8757
vn -0.3414 0.3414 -0.8757
vn -0.8268 0.2547 -0.5015
vn -0.9097 0.3776 -0.1730
vn -0.9000 0.4073 -0.1552
vn -0.7684 0.4093 -0.4920
vn -0.7850 0.4065 -0.4675
vn -0.3768 0.3498 -0.8577
vn -0.3527 0.4650 -0.8120
vn 0.3527 0.4650 -0.8120
vn 0.3768 0.3499 -0.8577
vn 0.7850 0.4065 -0.4675
vn 0.7684 0.4093 -0.4920
vn 0.9000 0.4073 -0.1552
vn 0.9097 0.3776 -0.1730
vn 0.8362 0.3875 -0.3882
vn 0.2892 0.1019 -0.9518
vn 0.8755 -0.3415 -0.3418
vn 0.9091 -0.3817 0.1672
vn 0.7906 -0.3779 0.4818
vn 0.3271 -0.4562 0.8276
vn -0.3271 -0.4562 0.8276
vn -0.7906 -0.3779 0.4818
vn -0.9091 -0.3816 0.1671
vn -0.8755 -0.3415 -0.3418
vn -0.3414 -0.3414 -0.8758
vn 0.3414 -0.3414 -0.8758
vn 0.8267 -0.2549 -0.5016
vn 0.9096 -0.3778 -0.1729
vn 0.9000 -0.4073 -0.1552
vn 0.7684 -0.4093 -0.4920
vn 0.7849 -0.4067 -0.4675
vn 0.3767 -0.3501 -0.8576
vn 0.3527 -0.4647 -0.8122
vn -0.3527 -0.4647 -0.8122
vn -0.3767 -0.3501 -0.8576
vn -0.7849 -0.4067 -0.4675
vn -0.7684 -0.4093 -0.4921
vn -0.9000 -0.4073 -0.1552
vn -0.9096 -0.3778 -0.1729
vn -0.8360 -0.3878 -0.3882
vn -0.2891 -0.1019 -0.9519
# 113 vertex normals

g Tent
s 1
f 1//1 2//2 3//3 4//4 
f 5//5 6//6 7//7 8//8 
f 9//9 10//10 11//11 12//12 
f 13//13 14//13 15//14 16//14 
f 17//15 18//15 19//16 20//16 
f 21//17 22//18 23//19 
f 24//20 25//21 26//21 27//20 
f 28//22 29//23 30//24 
f 31//25 32//26 33//26 34//25 
f 35//27 36//28 37//29 38//30 
f 39//31 40//32 41//33 42//34 
f 43//35 44//36 45//37 46//38 
f 47//39 48//40 49//41 50//42 
f 51//43 52//44 53//44 54//45 
f 55//46 56//47 57//48 58//49 
f 59//50 60//51 61//52 62//53 
f 63//54 64//55 65//56 66//57 
f 67//58 68//59 69//60 70//61 
f 71//62 72//63 73//63 74//45 
f 75//64 76//16 77//15 78//65 
f 79//66 80//21 81//20 82//67 
f 83//68 84//25 85//26 86//69 
f 87//70 88//14 89//13 90//71 
f 91//72 92//44 93//63 94//73 
f 95//64 96//74 97//75 98//76 
f 99//77 100//78 101//79 102//80 
f 103//81 104//82 105//83 106//84 
f 107//85 108//86 109//87 110//71 
f 111//72 112//88 113//63 114//73 
f 115//89 116//13 117//14 118//90 
f 119//91 120//26 121//25 122//92 
f 123//93 124//20 125//21 126//94 
f 127//95 128//15 129//16 130//96 
f 131//97 132//63 133//44 134//98 
f 135//89 136//99 137//100 138//101 
f 139//102 140//103 141//104 142//105 
f 143//106 144//107 145//108 146//109 
f 147//110 148//111 149//112 150//96 
f 151//97 152//113 153//44 154//98 
f 76//16 113//63 73//63 19//16 
f 14//13 52//44 92//44 89//13 
f 18//15 25//21 80//21 77//15 
f 88//14 85//26 33//26 15//14 
f 72//63 132//63 129//16 20//16 
f 13//13 116//13 153//44 53//44 
f 17//15 128//15 125//21 26//21 
f 32//26 120//26 117//14 16//14 
f 24//20 34//25 84//25 81//20 
f 124//20 121//25 31//25 27//20 
f 112//88 2//2 10//10 74//45 
f 108//86 105//83 22//18 3//3 
f 104//82 101//79 23//19 
f 21//17 100//78 97//75 4//4 
f 51//43 1//1 96//74 93//63 
f 152//113 7//7 12//12 54//45 
f 148//111 145//108 29//23 8//8 
f 144//107 141//104 30//24 
f 28//22 140//103 137//100 5//5 
f 71//62 6//6 136//99 133//44 
f 75//64 37//29 114//73 
f 79//66 41//33 38//30 78//65 
f 83//68 44//36 42//34 82//67 
f 87//70 48//40 45//37 86//69 
f 91//72 49//41 90//71 
f 95//64 50//42 94//73 
f 99//77 46//38 47//39 98//76 
f 103//81 39//31 43//35 102//80 
f 107//85 35//27 40//32 106//84 
f 111//72 36//28 110//71 
f 115//89 57//48 154//98 
f 119//91 61//52 58//49 118//90 
f 123//93 64//55 62//53 122//92 
f 127//95 68//59 65//56 126//94 
f 131//97 69//60 130//96 
f 135//89 70//61 134//98 
f 139//102 66//57 67//58 138//101 
f 143//106 59//50 63//54 142//105 
f 147//110 55//46 60//51 146//109 
f 151//97 56//47 150//96 
f 77//15 76//16 19//16 18//15 
f 22//18 21//17 4//4 3//3 
f 89//13 88//14 15//14 14//13 
f 2//2 1//1 11//11 10//10 
f 7//7 6//6 9//9 12//12 
f 117//14 116//13 13//13 16//14 
f 29//23 28//22 5//5 8//8 
f 129//16 128//15 17//15 20//16 
f 53//44 52//44 14//13 13//13 
f 73//63 72//63 20//16 19//16 
f 33//26 32//26 16//14 15//14 
f 26//21 25//21 18//15 17//15 
f 24//20 27//20 31//25 34//25 
f 85//26 84//25 34//25 33//26 
f 81//20 80//21 25//21 24//20 
f 125//21 124//20 27//20 26//21 
f 121//25 120//26 32//26 31//25 
f 109//87 108//86 3//3 2//2 
f 105//83 104//82 23//19 22//18 
f 101//79 100//78 21//17 23//19 
f 97//75 96//74 1//1 4//4 
f 12//12 11//11 51//43 54//45 
f 149//112 148//111 8//8 7//7 
f 145//108 144//107 30//24 29//23 
f 141//104 140//103 28//22 30//24 
f 137//100 136//99 6//6 5//5 
f 10//10 9//9 71//62 74//45 
f 113//63 112//88 74//45 73//63 
f 35//27 38//30 41//33 40//32 
f 39//31 42//34 44//36 43//35 
f 46//38 45//37 48//40 47//39 
f 93//63 92//44 52//44 51//43 
f 153//44 152//113 54//45 53//44 
f 55//46 58//49 61//52 60//51 
f 59//50 62//53 64//55 63//54 
f 66//57 65//56 68//59 67//58 
f 133//44 132//63 72//63 71//62 
f 38//30 37//29 75//64 78//65 
f 42//34 41//33 79//66 82//67 
f 45//37 44//36 83//68 86//69 
f 49//41 48//40 87//70 90//71 
f 49//41 91//72 94//73 50//42 
f 47//39 50//42 95//64 98//76 
f 43//35 46//38 99//77 102//80 
f 40//32 39//31 103//81 106//84 
f 36//28 35//27 107//85 110//71 
f 36//28 111//72 114//73 37//29 
f 113//63 76//16 75//64 114//73 
f 78//65 77//15 80//21 79//66 
f 81//20 84//25 83//68 82//67 
f 86//69 85//26 88//14 87//70 
f 89//13 92//44 91//72 90//71 
f 93//63 96//74 95//64 94//73 
f 98//76 97//75 100//78 99//77 
f 101//79 104//82 103//81 102//80 
f 106//84 105//83 108//86 107//85 
f 109//87 112//88 111//72 110//71 
f 58//49 57//48 115//89 118//90 
f 62//53 61//52 119//91 122//92 
f 65//56 64//55 123//93 126//94 
f 69//60 68//59 127//95 130//96 
f 69//60 131//97 134//98 70//61 
f 67//58 70//61 135//89 138//101 
f 63//54 66//57 139//102 142//105 
f 60//51 59//50 143//106 146//109 
f 56//47 55//46 147//110 150//96 
f 56//47 151//97 154//98 57//48 
f 153//44 116//13 115//89 154//98 
f 118//90 117//14 120//26 119//91 
f 121//25 124//20 123//93 122//92 
f 126//94 125//21 128//15 127//95 
f 129//16 132//63 131//97 130//96 
f 133//44 136//99 135//89 134//98 
f 138//101 137//100 140//103 139//102 
f 141//104 144//107 143//106 142//105 
f 146//109 145//108 148//111 147//110 
f 149//112 152//113 151//97 150//96 
f 112//88 109//87 2//2 
f 51//43 11//11 1//1 
f 152//113 149//112 7//7 
f 71//62 9//9 6//6 
# 144 polygons - 16 triangles

